<svg xmlns="http://www.w3.org/2000/svg" width="400" height="400" viewBox="0 0 400 400">
  <!-- Grunge square frame for product cards -->
  <!-- Inspired by third reference image (distressed square frames) -->
  <defs>
    <!-- Rough edge filter -->
    <filter id="roughen-square">
      <feTurbulence type="fractalNoise" baseFrequency="0.08" numOctaves="2" seed="3"/>
      <feDisplacementMap in="SourceGraphic" in2="turbulence" scale="3" xChannelSelector="R" yChannelSelector="G"/>
    </filter>

    <!-- Grunge texture -->
    <filter id="grunge-texture">
      <feTurbulence type="fractalNoise" baseFrequency="3.0" numOctaves="4" seed="5"/>
      <feColorMatrix type="saturate" values="0"/>
      <feComponentTransfer>
        <feFuncA type="discrete" tableValues="0 0 0 1"/>
      </feComponentTransfer>
    </filter>
  </defs>

  <!-- Background transparent -->
  <rect width="400" height="400" fill="transparent"/>

  <!-- Main square frame (rough edges) -->
  <rect x="10" y="10" width="380" height="380"
        fill="none"
        stroke="currentColor"
        stroke-width="3"
        filter="url(#roughen-square)"
        opacity="0.9"/>

  <!-- Inner grunge texture overlay -->
  <rect x="12" y="12" width="376" height="376"
        fill="currentColor"
        filter="url(#grunge-texture)"
        opacity="0.05"/>

  <!-- Scratches and wear marks (top edge) -->
  <g opacity="0.6" stroke="currentColor" fill="none">
    <path d="M 50 10 L 55 8" stroke-width="1"/>
    <path d="M 120 11 L 128 9" stroke-width="0.8"/>
    <path d="M 250 10 L 256 12" stroke-width="1"/>
    <path d="M 350 10 L 354 8" stroke-width="0.8"/>
  </g>

  <!-- Scratches (right edge) -->
  <g opacity="0.6" stroke="currentColor" fill="none">
    <path d="M 390 80 L 392 85" stroke-width="0.8"/>
    <path d="M 389 180 L 393 186" stroke-width="1"/>
    <path d="M 390 290 L 392 295" stroke-width="0.8"/>
    <path d="M 389 350 L 391 356" stroke-width="1"/>
  </g>

  <!-- Scratches (bottom edge) -->
  <g opacity="0.6" stroke="currentColor" fill="none">
    <path d="M 70 390 L 74 392" stroke-width="0.8"/>
    <path d="M 180 389 L 186 391" stroke-width="1"/>
    <path d="M 280 390 L 285 392" stroke-width="0.8"/>
    <path d="M 360 389 L 364 391" stroke-width="1"/>
  </g>

  <!-- Scratches (left edge) -->
  <g opacity="0.6" stroke="currentColor" fill="none">
    <path d="M 10 60 L 8 66" stroke-width="0.8"/>
    <path d="M 11 150 L 9 156" stroke-width="1"/>
    <path d="M 10 260 L 8 265" stroke-width="0.8"/>
    <path d="M 11 340 L 9 346" stroke-width="1"/>
  </g>

  <!-- Corner imperfections -->
  <g opacity="0.5" fill="currentColor">
    <!-- Top-left -->
    <circle cx="15" cy="15" r="1.5"/>
    <circle cx="25" cy="18" r="1"/>
    <!-- Top-right -->
    <circle cx="385" cy="15" r="1.5"/>
    <circle cx="375" cy="20" r="1"/>
    <!-- Bottom-right -->
    <circle cx="385" cy="385" r="1.5"/>
    <circle cx="378" cy="375" r="1"/>
    <!-- Bottom-left -->
    <circle cx="15" cy="385" r="1.5"/>
    <circle cx="22" cy="378" r="1"/>
  </g>

  <!-- Random distress marks -->
  <g opacity="0.4" fill="currentColor">
    <circle cx="100" cy="50" r="0.8"/>
    <circle cx="200" cy="30" r="1"/>
    <circle cx="300" cy="45" r="0.7"/>
    <circle cx="370" cy="100" r="0.8"/>
    <circle cx="350" cy="200" r="1"/>
    <circle cx="360" cy="300" r="0.7"/>
    <circle cx="300" cy="370" r="0.8"/>
    <circle cx="200" cy="360" r="1"/>
    <circle cx="100" cy="355" r="0.7"/>
    <circle cx="30" cy="300" r="0.8"/>
    <circle cx="40" cy="200" r="1"/>
    <circle cx="35" cy="100" r="0.7"/>
  </g>
</svg>
